<svg id="Layer_1" data-name="Layer 1" xmlns="http://www.w3.org/2000/svg" viewBox="0 0 400 400"><defs><style>.cls-1,.cls-6{fill:#f0f0f0;}.cls-2,.cls-3{fill:#5a5a5a;}.cls-3{font-size:91.07px;}.cls-3,.cls-6{font-family:HPSimplified-Regular, HP Simplified;}.cls-4{letter-spacing:-0.02em;}.cls-5{letter-spacing:-0.02em;}.cls-6{font-size:40px;}.cls-7{letter-spacing:-0.01em;}.cls-8{letter-spacing:-0.01em;}</style></defs><title>excel</title><path class="cls-1" d="M124.59,247.9c-15.57,0-19.68-12.92-19.68-19.75V42.92c0-15.62,12.88-19.75,19.68-19.75h97l62.15,62.4V228.15c0,15.61-12.88,19.74-19.69,19.75H124.59Z"/><path class="cls-2" d="M277,228.14c0,12.27-10.81,13-13,13.05H124.59c-12.21,0-13-10.88-13-13.05V42.92c0-12.27,10.82-13,13-13h94.19l.05.05V66.68c0,7.38,4.45,21.34,21.34,21.34h36.52l.31.32Zm-8.66-148.5H240.18c-12.22,0-13-10.82-13-13V38.34Zm17,148.5V84.88L227.21,26.47v-.28h-.28l-4.67-4.69H124.59c-7.38,0-21.35,4.48-21.35,21.42V228.15c0,7.4,4.46,21.42,21.35,21.42H264c7.38,0,21.35-4.48,21.35-21.43M245,92.26H143.63a6.5,6.5,0,0,0-6.82,6.11v72.54a6.49,6.49,0,0,0,6.82,6.1H245a6.49,6.49,0,0,0,6.82-6.1V98.37A6.5,6.5,0,0,0,245,92.26Zm-67.25,56.33V131.38h33.14v17.21Zm33.14,5.85V172H177.74V154.44Zm0-46.2v17.21H177.74V108.24Zm35.08,0v17.21H216.72V108.24Zm-74.07,17.21H142.66V108.24h29.23Zm-29.23,5.85h29.23v17.29H142.66Zm74.06,0H246v17.29H216.72ZM143.63,99H245a2.07,2.07,0,0,1,1,.26v3.13H142.66v-3A1.25,1.25,0,0,1,143.63,99Zm-1,72.8h0V154.44h29.23V172H143.63A2.29,2.29,0,0,1,142.66,171.8Zm102.33.26H216.72V154.51H246v17.25A1.23,1.23,0,0,1,245,172.06Z"/><text class="cls-3" transform="translate(96.87 359.59)">E<tspan class="cls-4" x="46.72" y="0">x</tspan><tspan class="cls-5" x="88.7" y="0">c</tspan><tspan x="125.95" y="0">el</tspan></text><rect class="cls-2" x="110.5" y="194.5" width="167" height="47"/><text class="cls-6" transform="translate(156.45 230.16)">.<tspan class="cls-7" x="10" y="0">x</tspan><tspan x="28.84" y="0">l</tspan><tspan class="cls-8" x="39.28" y="0">s</tspan><tspan x="56.56" y="0">x</tspan></text></svg>