<svg id="Layer_1" data-name="Layer 1" xmlns="http://www.w3.org/2000/svg" viewBox="0 0 400 400"><defs><style>.cls-1{fill:#f0f0f0;}.cls-2,.cls-3{fill:#5a5a5a;}.cls-3{font-size:91.07px;font-family:HPSimplified-Regular, HP Simplified;}.cls-4{letter-spacing:0em;}.cls-5{letter-spacing:0em;}</style></defs><title>image</title><path class="cls-1" d="M124.59,247.9c-15.57,0-19.68-12.92-19.68-19.75V42.92c0-15.62,12.88-19.75,19.68-19.75h97l62.15,62.4V228.15c0,15.61-12.88,19.74-19.69,19.75H124.59Z"/><path class="cls-2" d="M277,228.14c0,12.27-10.81,13-13,13.05H124.59c-12.21,0-13-10.88-13-13.05V42.92c0-12.27,10.82-13,13-13h94.19l.05.05V66.68c0,7.38,4.45,21.34,21.34,21.34h36.52l.31.32Zm-8.66-148.5H240.18c-12.22,0-13-10.82-13-13V38.34Zm17,148.5V84.88L227.21,26.47v-.28h-.28l-4.67-4.69H124.59c-7.38,0-21.35,4.48-21.35,21.42V228.15c0,7.4,4.46,21.42,21.35,21.42H264c7.38,0,21.35-4.48,21.35-21.43M240,104.58H148.65a8,8,0,0,0-7.94,7.94V180a7.94,7.94,0,0,0,7.94,7.94H240a7.94,7.94,0,0,0,7.94-7.94V112.52A8,8,0,0,0,240,104.58ZM224.91,153a4,4,0,0,0-5.62,0l-6.29,6.3a4,4,0,0,1-5.62,0L185.2,137.16a4,4,0,0,0-5.61,0L148.65,168.1V112.52H240v55.59Zm-30.6-32.58a7.94,7.94,0,1,1-7.94,7.94A7.94,7.94,0,0,1,194.31,120.46Z"/><text class="cls-3" transform="translate(78.06 359.59)">I<tspan class="cls-4" x="22.31" y="0">m</tspan><tspan x="95.17" y="0">a</tspan><tspan class="cls-5" x="140.52" y="0">g</tspan><tspan x="187.33" y="0">e</tspan></text></svg>