<svg id="Layer_1" data-name="Layer 1" xmlns="http://www.w3.org/2000/svg" viewBox="0 0 400 400"><defs><style>.cls-1,.cls-4{fill:#f0f0f0;}.cls-2,.cls-3{fill:#5a5a5a;}.cls-3{font-size:91.07px;}.cls-3,.cls-4{font-family:HPSimplified-Regular, HP Simplified;}.cls-4{font-size:40px;}.cls-5{letter-spacing:-0.01em;}</style></defs><title>pdf</title><path class="cls-1" d="M124.59,247.9c-15.57,0-19.68-12.92-19.68-19.75V42.92c0-15.62,12.88-19.75,19.68-19.75h97l62.15,62.4V228.15c0,15.61-12.88,19.74-19.69,19.75H124.59Z"/><path class="cls-2" d="M154.59,168.36c6.71,0,13.17-9.22,14.4-11.07a101.16,101.16,0,0,0,7-12.65c5.7-2.06,11.77-3.59,17.65-5.08l2.11-.53q2.39-.61,4.92-1.31c1.79-.49,3.63-1,5.49-1.46a48.69,48.69,0,0,0,18.88,7.26c5.34.78,10.08.33,13.29-1.34a4.92,4.92,0,0,0,3-4.75c-.35-4.92-8.62-8.07-8.7-8.1A31.22,31.22,0,0,0,222,127.64a63.48,63.48,0,0,0-14.64,2,50.82,50.82,0,0,1-13.07-13.43c-1.49-2.26-2.82-4.52-4-6.72,2.84-6.79,5.39-14.09,4.93-22.27-.38-6.56-3.33-11-7.35-11-2.76,0-5.14,2-7.07,6.08-3.44,7.19-2.54,16.38,2.69,27.36-1.88,4.42-3.63,9-5.32,13.45-2.11,5.52-4.28,11.22-6.73,16.63a59.63,59.63,0,0,0-17.2,10.05c-3.08,2.65-6.79,6.69-7,10.91a7,7,0,0,0,2,5.27A7.25,7.25,0,0,0,154.59,168.36Zm76-33.22a17,17,0,0,1,3.63,2.08,20.66,20.66,0,0,1-8.25.2,39.54,39.54,0,0,1-10.42-3.1C221.71,133.42,226.49,133.7,230.58,135.14ZM186.41,85a9.43,9.43,0,0,1,1.41-2.27,10.58,10.58,0,0,1,1.28,4.84,36.18,36.18,0,0,1-2.29,13.9C184.93,96,184.06,89.88,186.41,85ZM184,125.33c1.09-2.86,2.2-5.77,3.35-8.65.59,1,1.2,1.93,1.83,2.89a56.61,56.61,0,0,0,10.68,12l-.75.2c-1.65.45-3.27.89-4.82,1.28l-2.1.53c-4.22,1.07-8.53,2.16-12.78,3.46C181,133.13,182.5,129.19,184,125.33ZM158.3,154.5a47.28,47.28,0,0,1,8.79-5.94c-1.06,1.89-2.14,3.65-3.24,5.32-2.66,4-7,8.31-9.26,8.31a1.08,1.08,0,0,1-.87-.44.86.86,0,0,1-.28-.71C153.51,159.56,155.47,156.93,158.3,154.5Z"/><path class="cls-2" d="M227.21,26.47v-.28h-.28l-4.67-4.69H124.59c-7.38,0-21.35,4.48-21.35,21.42V228.15c0,7.4,4.46,21.42,21.35,21.42H264c7.38,0,21.35-4.48,21.35-21.43V84.88Zm0,11.87,41.13,41.3H240.18c-12.22,0-13-10.82-13-13ZM124.59,29.88h94.19l.05.05V66.68c0,7.38,4.45,21.34,21.34,21.34h36.52l.31.32V194.5H111.62V42.92C111.62,30.65,122.44,29.91,124.59,29.88Z"/><text class="cls-3" transform="translate(119.77 359.59)">PDF</text><text class="cls-4" transform="translate(161.73 230.16)"><tspan class="cls-5">.</tspan><tspan x="9.72" y="0">pdf</tspan></text></svg>