<svg id="Layer_1" data-name="Layer 1" xmlns="http://www.w3.org/2000/svg" viewBox="0 0 400 400"><defs><style>.cls-1,.cls-5{fill:#f0f0f0;}.cls-2,.cls-3{fill:#5a5a5a;}.cls-3{font-size:91.07px;}.cls-3,.cls-5{font-family:HPSimplified-Regular, HP Simplified;}.cls-4{letter-spacing:-0.01em;}.cls-5{font-size:40px;}.cls-6{letter-spacing:-0.01em;}.cls-7{letter-spacing:-0.01em;}.cls-8{letter-spacing:-0.01em;}</style></defs><title>ppt</title><path class="cls-1" d="M124.59,247.9c-15.57,0-19.68-12.92-19.68-19.75V42.92c0-15.62,12.88-19.75,19.68-19.75h97l62.15,62.4V228.15c0,15.61-12.88,19.74-19.69,19.75H124.59Z"/><path class="cls-2" d="M210.55,113.12H256a3.09,3.09,0,0,0,0-6.18H210.55a3.09,3.09,0,1,0,0,6.18Z"/><path class="cls-2" d="M227.21,26.47v-.28h-.28l-4.67-4.69H124.59c-7.38,0-21.35,4.48-21.35,21.42V228.15c0,7.4,4.46,21.42,21.35,21.42H264c7.38,0,21.35-4.48,21.35-21.43V84.88Zm0,11.87,41.13,41.3H240.18c-12.22,0-13-10.82-13-13ZM124.59,29.88h94.19l.05.05V66.68c0,7.38,4.45,21.34,21.34,21.34h36.52l.31.32V194.5H111.62V42.92C111.62,30.65,122.44,29.91,124.59,29.88Z"/><path class="cls-2" d="M156.7,164.89a27.16,27.16,0,0,0,26.92-24.13h.82a3.08,3.08,0,0,0,3.08-3.09,30.85,30.85,0,0,0-30.81-30.81,3.09,3.09,0,0,0-3.09,3.09v.82a27.14,27.14,0,0,0,3.08,54.12Zm3.09-51.66a24.69,24.69,0,0,1,21.37,21.36H159.79Zm-6.17,3.62v20.83a3.09,3.09,0,0,0,3.08,3.09h20.84a21.05,21.05,0,1,1-23.92-23.92Z"/><path class="cls-2" d="M210.55,126.11H256a3.09,3.09,0,0,0,0-6.18H210.55a3.09,3.09,0,0,0,0,6.18Z"/><path class="cls-2" d="M210.55,139.11H256a3.09,3.09,0,0,0,0-6.18H210.55a3.09,3.09,0,1,0,0,6.18Z"/><path class="cls-2" d="M210.55,165.1H256a3.09,3.09,0,0,0,3.09-3.09V149a3.1,3.1,0,0,0-3.09-3.09H210.55a3.1,3.1,0,0,0-3.09,3.09v13A3.09,3.09,0,0,0,210.55,165.1Zm3.09-13H253v6.82H213.64Z"/><text class="cls-3" transform="translate(120.59 359.59)">P<tspan class="cls-4" x="50.18" y="0">P</tspan><tspan x="99.63" y="0">T</tspan></text><text class="cls-5" transform="translate(161.85 230.16)"><tspan class="cls-6">.</tspan><tspan class="cls-7" x="9.72" y="0">p</tspan><tspan class="cls-8" x="30.48" y="0">p</tspan><tspan x="50.96" y="0">t</tspan></text></svg>