<svg id="Layer_1" data-name="Layer 1" xmlns="http://www.w3.org/2000/svg" viewBox="0 0 400 400"><defs><style>.cls-1{fill:#f0f0f0;}.cls-2,.cls-3{fill:#5a5a5a;}.cls-3{font-size:91.07px;font-family:HPSimplified-Regular, HP Simplified;}</style></defs><title>video</title><path class="cls-1" d="M124.59,247.9c-15.57,0-19.68-12.92-19.68-19.75V42.92c0-15.62,12.88-19.75,19.68-19.75h97l62.15,62.4V228.15c0,15.61-12.88,19.74-19.69,19.75H124.59Z"/><path class="cls-2" d="M277,228.14c0,12.27-10.81,13-13,13.05H124.59c-12.21,0-13-10.88-13-13.05V42.92c0-12.27,10.82-13,13-13h94.19l.05.05V66.68c0,7.38,4.45,21.34,21.34,21.34h36.52l.31.32Zm-8.66-148.5H240.18c-12.22,0-13-10.82-13-13V38.34Zm17,148.5V84.88L227.21,26.47v-.28h-.28l-4.67-4.69H124.59c-7.38,0-21.35,4.48-21.35,21.42V228.15c0,7.4,4.46,21.42,21.35,21.42H264c7.38,0,21.35-4.48,21.35-21.43m-54.46-43.2H157.69a12.19,12.19,0,0,1-12.2-12.21v-61a12.18,12.18,0,0,1,12.2-12.21h73.23a12.19,12.19,0,0,1,12.21,12.21v61a12.2,12.2,0,0,1-12.21,12.21ZM211,139.25,187.8,124.47a4,4,0,0,0-1.84-.56,3.85,3.85,0,0,0-3.86,3.85v28.9a3.87,3.87,0,0,0,3.86,3.87,3.69,3.69,0,0,0,1.83-.58l23.26-14.81a3.24,3.24,0,0,0,1-1,3.53,3.53,0,0,0-1-4.92Z"/><text class="cls-3" transform="translate(88.58 359.59)">Video</text></svg>