<svg id="Layer_1" data-name="Layer 1" xmlns="http://www.w3.org/2000/svg" viewBox="0 0 400 400"><defs><style>.cls-1,.cls-6{fill:#f0f0f0;}.cls-2,.cls-3{fill:#5a5a5a;}.cls-3{font-size:91.07px;}.cls-3,.cls-6{font-family:HPSimplified-Regular, HP Simplified;}.cls-4{letter-spacing:-0.02em;}.cls-5{letter-spacing:-0.02em;}.cls-6{font-size:40px;}.cls-7{letter-spacing:-0.02em;}</style></defs><title>word</title><path class="cls-1" d="M124.59,247.9c-15.57,0-19.68-12.92-19.68-19.75V42.92c0-15.62,12.88-19.75,19.68-19.75h97l62.15,62.4V228.15c0,15.61-12.88,19.74-19.69,19.75H124.59Z"/><path class="cls-2" d="M266.09,136.8H232.73a4.22,4.22,0,0,0,0,8.44h33.36a4.22,4.22,0,1,0,0-8.44Z"/><path class="cls-2" d="M215.84,145.24a4.22,4.22,0,0,0,0-8.44H207a4.22,4.22,0,0,0,0,8.44Z"/><path class="cls-2" d="M198.74,111.46h67.35a4.22,4.22,0,1,0,0-8.44H198.74a4.22,4.22,0,0,0,0,8.44Z"/><path class="cls-2" d="M266.09,119.91h-50a4.22,4.22,0,0,0,0,8.44h50a4.22,4.22,0,1,0,0-8.44Z"/><path class="cls-2" d="M181.43,153.69h-8.87a4.22,4.22,0,1,0,0,8.44h8.87a4.22,4.22,0,1,0,0-8.44Z"/><path class="cls-2" d="M266.09,153.69H198.74a4.22,4.22,0,1,0,0,8.44h67.35a4.22,4.22,0,1,0,0-8.44Z"/><path class="cls-2" d="M227.21,26.47v-.28h-.28l-4.67-4.69H124.59c-7.38,0-21.35,4.48-21.35,21.42V228.15c0,7.4,4.46,21.42,21.35,21.42H264c7.38,0,21.35-4.48,21.35-21.43V84.88Zm0,11.87,41.13,41.3H240.18c-12.22,0-13-10.82-13-13ZM124.59,29.88h94.19l.05.05V66.68c0,7.38,4.45,21.34,21.34,21.34h36.52l.31.32V194.5H111.62V42.92C111.62,30.65,122.44,29.91,124.59,29.88Z"/><path class="cls-2" d="M122.53,145.24h67.35a4.22,4.22,0,1,0,0-8.44H122.53a4.22,4.22,0,0,0,0,8.44Z"/><path class="cls-2" d="M122.53,162.13h32.93a4.22,4.22,0,1,0,0-8.44H122.53a4.22,4.22,0,0,0,0,8.44Z"/><path class="cls-2" d="M122.53,128.35h49.82a4.22,4.22,0,0,0,0-8.44H122.53a4.22,4.22,0,0,0,0,8.44Z"/><path class="cls-2" d="M172.56,111.46h8.87a4.22,4.22,0,0,0,0-8.44h-8.87a4.22,4.22,0,1,0,0,8.44Z"/><path class="cls-2" d="M189.66,128.35h8.87a4.22,4.22,0,0,0,0-8.44h-8.87a4.22,4.22,0,0,0,0,8.44Z"/><path class="cls-2" d="M122.53,111.46h32.93a4.22,4.22,0,1,0,0-8.44H122.53a4.22,4.22,0,0,0,0,8.44Z"/><text class="cls-3" transform="translate(96.14 359.59)"><tspan class="cls-4">W</tspan><tspan x="70.49" y="0">o</tspan><tspan class="cls-5" x="118.39" y="0">r</tspan><tspan x="148.9" y="0">d</tspan></text><text class="cls-6" transform="translate(150.75 230.16)"><tspan class="cls-7">.</tspan><tspan x="9.12" y="0">docx</tspan></text></svg>