<svg xmlns="http://www.w3.org/2000/svg" viewBox="0 0 42 50"> <g><path d="M27.4 4.6L27.9 3.8 28.5 3 29.7 1.2C29.8 1 29.8.7 29.6.5 29.4.4 29.1.4 28.9.6L27.6 2.5 27 3.4 26.5 4.2C24.8 3.5 22.9 3.2 20.9 3.2 18.9 3.2 17 3.6 15.3 4.2L14.8 3.4 14.3 2.6 13 .7C12.9.5 12.6.4 12.3.6 12 .7 11.9 1 12.1 1.2L13.3 3 13.8 3.8 14.3 4.6C10.3 6.5 7.6 10 7.6 14.1L34.2 14.1C34.1 10 31.4 6.4 27.4 4.6L27.4 4.6zM15.2 10.3C14.4 10.3 13.8 9.7 13.8 8.9 13.8 8.1 14.4 7.5 15.2 7.5 16 7.5 16.6 8.1 16.6 8.9 16.6 9.7 16 10.3 15.2 10.3L15.2 10.3zM26.6 10.3C25.8 10.3 25.2 9.7 25.2 8.9 25.2 8.1 25.8 7.5 26.6 7.5 27.3 7.4 28 8 28 8.8 28 9.6 27.3 10.3 26.6 10.3L26.6 10.3zM7.8 15.9L7.6 15.9 7.6 18.3 7.6 20.2 7.6 36.8C7.6 38.5 8.9 39.8 10.6 39.8L12.8 39.8C12.7 40.1 12.7 40.3 12.7 40.6L12.7 40.8 12.7 41.7 12.7 46.6C12.7 48.2 14 49.4 15.5 49.4 17 49.4 18.3 48.1 18.3 46.6L18.3 41.7 18.3 40.8 18.3 40.6C18.3 40.3 18.3 40.1 18.2 39.8L23.5 39.8C23.4 40.1 23.4 40.3 23.4 40.6L23.4 40.8 23.4 41.7 23.4 46.6C23.4 48.2 24.7 49.4 26.2 49.4 27.8 49.4 29 48.1 29 46.6L29 41.7 29 40.8 29 40.6C29 40.3 29 40.1 28.9 39.8L31.1 39.8C32.8 39.8 34.1 38.5 34.1 36.8L34.1 20.2 34.1 18.3 34.1 15.9 33.9 15.9 7.8 15.9 7.8 15.9zM2.8 15.9C1.2 15.9 0 17.2 0 18.7L0 31C0 32.6 1.3 33.8 2.8 33.8 4.4 33.8 5.6 32.5 5.6 31L5.6 18.8C5.7 17.2 4.4 15.9 2.8 15.9L2.8 15.9zM38.9 15.9C37.3 15.9 36.1 17.2 36.1 18.7L36.1 31C36.1 32.6 37.4 33.8 38.9 33.8 40.5 33.8 41.7 32.5 41.7 31L41.7 18.8C41.7 17.2 40.5 15.9 38.9 15.9L38.9 15.9z"/></g> </svg>