<?xml version="1.0" encoding="utf-8"?>
<!-- Generator: Adobe Illustrator 23.0.2, SVG Export Plug-In . SVG Version: 6.00 Build 0)  -->
<svg version="1.1" id="Layer_1" xmlns="http://www.w3.org/2000/svg" xmlns:xlink="http://www.w3.org/1999/xlink" x="0px" y="0px"
	 viewBox="0 0 595.28 841.89" style="enable-background:new 0 0 595.28 841.89;" xml:space="preserve">
<style type="text/css">
	.st0{fill:#0096d6;}
    .color-write{
        fill: #fff;
    }
</style>
<g>
	
	<path class="color-write" d="M505.79,421.44c3.16,35.01-7.72,67.09-25.94,97.64c-3.28,5.5-2.5,14.78-0.83,21.64c9.51,39-0.75,68.58-32.15,89.68
		c-27.37,18.39-65.55,14.93-91.53-6.83c-6.51-5.46-16.29-10.09-24.49-9.97c-48.88,0.77-97,0.06-139.43-29.77
		c-3.46-2.43-11.27-0.36-16.37,1.5c-58.32,21.25-111.08-11.6-103.78-74.48c1.84-15.86,14.24-30.49,21.81-45.68
		c2.54-5.1,8.23-10.8,7.31-15.13c-10.51-49.53,2.29-93.7,28.27-135.58c3.51-5.66,5.46-14.77,3.59-20.89
		c-11.74-38.43,5.84-62.37,25.93-78.1c18.68-14.63,56.22-13.55,78.45,3.98c10.18,8.02,17.88,8.37,30.39,7.41
		c44.03-3.37,88.89-4.35,129.25,17.63c10.54,5.74,16.09,2.46,23.7-1.56c33.76-17.84,81.54-10.73,99.71,25.7
		c13.54,27.14,13.74,54.35-5.92,79.09c-9.22,11.61-15.4,21.61-8.74,37.91C509.13,395.66,505.79,408.75,505.79,421.44z
		 M387.01,297.64c14.47,21.09,24.89,41.75,40.52,57.11c10.44,10.26,8.4,14.03,0.55,21.73c-14.65,14.37-29.33,28.72-43.5,43.55
		c-7.64,8-13.03,9.98-23.86,2.61c-18.72-12.74-39.69-11.96-58.32,1.85c-16.97,12.57-27.65,27.94-21.91,51.46
		c1.32,5.4-5.47,16.41-11.26,19.25c-20.45,10.02-42.08,17.62-59.02,24.42c-14.66-18.32-27.57-34.6-40.65-50.75
		c-5.85-7.22-12.05-14.15-16.63-19.5c-6,3.05-16.57,9.03-27.78,13.37c-1.35,0.52-6.14-7.85-7.31-9.41
		c-4.82,7.54-10.01,16.41-15.96,24.73c-3.78,5.28-9.95,9.09-12.88,14.69c-12.24,23.33-5.44,53.68,15.52,73.02
		c16.14,14.89,46.79,16.1,68.75,4.45c5.63-2.99,14.79-2.84,21.01-0.55c23.97,8.84,46.67,22.48,71.26,27.88
		c21.75,4.78,45.39,1,68.19,1c0.1-2.5,0.21-5,0.31-7.51c-51.39,2.48-101.71,0.69-148.79-36.78c10.27-9.99,18.48-22.29,29.97-28.18
		c18.9-9.68,40.25-14.45,59.94-22.76c10.62-4.48,17.34-4.3,26.98,3.66c8.76,7.24,22.32,13.49,33.08,12.52
		c27.42-2.47,51.21-40.13,47.82-68.74c-0.82-6.9,1.46-16.24,5.91-21.31c13.97-15.96,32.4-28.59,43.91-45.96
		c11.9-17.96,24.44-25.13,51.16-17.95c0,24.44,3.03,50.75-0.86,75.99c-3.79,24.59-14.67,48.08-22.44,72.06
		c34.19-39.09,38.43-85.42,29.64-132.37c-3.03-16.17-3.47-25.19,8.62-36.76c18.57-17.75,22.69-53.11,9.01-69.84
		c-17.93-21.92-41.84-41.78-76.56-22.37c-9.77,5.46-19.63,10.74-28.21,15.43c4.94,29.6-23.36,20.91-37.22,33.84
		C377.22,299.44,385.24,297.96,387.01,297.64z M325.6,355.02c-1.71-41.07-34.35-70.5-71.3-70.07c-41.59,0.48-69.98,35.3-69.22,71.41
		c0.83,39.21,31.54,71.13,70.5,70.05C295.64,425.29,325.09,393.57,325.6,355.02z M343.2,564.94c0.02,36.79,27.32,66.33,63.22,65.38
		c33.8-0.9,63.22-30.43,64.01-64.11c0.85-35.97-28.62-63.11-65.48-63.12C367.32,503.08,343.18,527.26,343.2,564.94z M178.61,321.83
		c12.84-29.49,37.78-43.42,67.08-49.83c0.71-9.92,1.32-18.46,2.04-28.66c-17.02-8.56-33.85-21.91-52.41-25.08
		c-22.19-3.78-39.12,11.21-49.24,31.79C132.62,277.43,143.96,303.06,178.61,321.83z M397.08,486.01
		c15.96,4.22,30.15,8.63,44.67,11.34c3.64,0.68,10.24-3.05,12.18-6.57c18.6-33.8,24.12-69.89,15.49-107.56
		c-0.41-1.79-13.6-3.97-16.29-1.33c-12.35,12.12-21.25,28.28-34.78,38.54C394.01,438.89,393.32,462.12,397.08,486.01z
		 M333.08,534.12c-46.73-25.66-86.99-8.96-128.98,15.51c38.26,26.02,71.76,34.18,124.42,26.21
		C330.1,561.29,331.71,546.61,333.08,534.12z M341.05,325.76c-3.84,29.38-6.87,52.53-9.54,72.93c40.68,25.6,64.13-1.12,83.31-28.33
		c-11.86-19.81-22.78-38.07-34.82-58.18C368.54,316.17,351.92,321.97,341.05,325.76z M194.6,424.26
		c-5.7,6.91-14.44,17.52-20.42,24.77c15.85,19.68,29.06,36.07,42.02,52.17c33.29-6.16,64.55-16.33,52.28-60.21
		C246.57,436.02,223.26,430.74,194.6,424.26z M130.28,449.85c14.75-16.37,28.25-30.01,39.95-45.06c4.21-5.41,5.79-14.24,5.59-21.43
		c-0.45-16.65-2.72-33.25-4.38-51.2c-3.25-1.06-9.15-2.99-15.93-5.2C130.76,364.47,122.31,404.17,130.28,449.85z M324.63,298.84
		c17.45-6.43,39.1-14.41,63.39-23.36c-10.51-4.7-18.48-10.28-27.15-11.77c-26.79-4.61-53.77-8.94-80.85-10.54
		c-8.24-0.49-25.38,0.48-20.77,13.86C282.74,278.46,302.24,287.95,324.63,298.84z"/>
	
	
</g>
</svg>
