<?xml version="1.0" encoding="utf-8"?>
<!-- Generator: Adobe Illustrator 23.0.2, SVG Export Plug-In . SVG Version: 6.00 Build 0)  -->
<svg version="1.1" id="Layer_1" xmlns="http://www.w3.org/2000/svg" xmlns:xlink="http://www.w3.org/1999/xlink" x="0px" y="0px"
	 viewBox="0 0 595.28 841.89" style="enable-background:new 0 0 595.28 841.89;" xml:space="preserve">
<style type="text/css">
	.st0{fill:#0096d6;}
    .color-write{
        fill: #fff;
    }
</style>
<g>
	
	<path class="color-write" d="M300.5,590.14c-62.52,0-125.05,0.05-187.57-0.02c-31.53-0.03-46.63-15.19-46.65-46.83c-0.06-77.97-0.07-155.94,0.01-233.92
		c0.03-30.37,15.34-46.02,45.22-46.04c125.78-0.07,251.57-0.07,377.35,0c30.07,0.02,45.51,15.54,45.54,45.72
		c0.08,77.97,0.06,155.94,0.01,233.92c-0.02,31.81-15.03,47.12-46.33,47.15C425.55,590.19,363.02,590.14,300.5,590.14z
		 M94.97,281.79c60.56,60.29,117.36,116.92,174.26,173.45c24.13,23.98,31.98,24.42,58.23,3.8c2.88-2.26,5.3-5.1,7.9-7.7
		c52.04-52.04,104.1-104.06,156.06-156.19c3.68-3.69,6.6-8.12,10.81-13.37C366.57,281.79,233.59,281.79,94.97,281.79z M97.16,570.6
		c136.85,0,270.3,0,406.41,0c-48.14-43.2-93.87-84.23-138.76-124.52c-22.85,13.71-32.26,43.01-64.44,43.03
		c-32.66,0.02-42.25-30.4-64.39-43.2C190.46,486.79,145.01,527.61,97.16,570.6z M514.53,557.91c10.9-22.38,8.99-246.54-0.44-259.49
		c-45.33,45.32-90.89,90.88-136.59,136.56C422.06,474.96,467.54,515.75,514.53,557.91z M82,299.13c0,86.52,0,172.26,0,262.15
		c49.72-44.69,95.96-86.27,140.56-126.37c-44.12-45.19-88.12-90.34-132.38-135.25C88.72,298.18,84.67,299.25,82,299.13z"/>
	
</g>
</svg>
