<?xml version="1.0" encoding="utf-8"?>
<!-- Generator: Adobe Illustrator 23.0.2, SVG Export Plug-In . SVG Version: 6.00 Build 0)  -->
<svg version="1.1" id="Layer_1" xmlns="http://www.w3.org/2000/svg" xmlns:xlink="http://www.w3.org/1999/xlink" x="0px" y="0px"
	 viewBox="0 0 595.28 841.89" style="enable-background:new 0 0 595.28 841.89;" xml:space="preserve">
<style type="text/css">
	.st0{fill:#0096d6;}
    .color-write{
        fill: #fff;
    }
</style>
<g>
	
	<path class="color-write" d="M182.45,491.66c0-32.58-1.39-65.25,0.7-97.69c0.81-12.57,7.45-26.14,15.11-36.56c9.97-13.56,23.8-24.23,35.61-36.5
		c12.55-13.05,28.57-22.34,20.97-47.35c-5.57-18.33,17.64-43.55,34.58-45.73c31.11-3.99,54.73,8.82,61.48,35.21
		c2.51,9.81,0.54,20.72,1.09,31.1c0.18,3.42,1.24,7.11,2.98,10.04c1.84,3.09,4.61,5.94,7.6,8c52.23,35.92,67.6,85.48,61.09,147.23
		c-4.63,43.94-1.5,88.77-0.63,133.18c0.4,20.29-7.78,27.33-27.61,27.09c-61.45-0.74-122.92-0.82-184.37,0.03
		c-20.7,0.29-29.64-6.55-28.9-28.09C183.29,558.33,182.45,524.98,182.45,491.66z M340.89,315.56c-3.11,16.98-6.12,27.95-6.93,39.08
		c-1.35,18.45-12.05,28.4-31.45,29.04c-19.4,0.65-27.84-10.92-30.5-27.27c-2.74-16.86,10.25-28.72,28.99-31.04
		c8.93-1.11,17.43-5.73,26.13-8.77c-4.51-8.89-8.5-18.11-13.78-26.52c-2.49-3.97-7.44-6.39-12.29-10.35
		c-33.19,33.48-65.73,65.85-97.54,98.93c-4.44,4.61-7.34,12.71-7.4,19.22c-0.54,62.99-0.03,125.98-0.55,188.96
		c-0.12,14.45,4.97,19.55,19.42,19.41c58.54-0.54,117.09-0.56,175.63,0.01c14.87,0.14,19.1-5.8,18.99-19.84
		c-0.49-62.99,0.01-125.98-0.55-188.96c-0.06-6.47-3.32-14.28-7.7-19.09C383.46,358.69,364.56,339.94,340.89,315.56z M336.91,284.98
		c0.33-24.17-17.87-45.43-36.32-43.76c-17.44,1.58-29.7,18.72-26.88,37.62C299.35,259.22,308.32,259.84,336.91,284.98z"/>
	
</g>
</svg>
