<?xml version="1.0" encoding="utf-8"?>
<!-- Generator: Adobe Illustrator 23.0.3, SVG Export Plug-In . SVG Version: 6.00 Build 0)  -->
<svg version="1.1" id="Layer_1" xmlns="http://www.w3.org/2000/svg" xmlns:xlink="http://www.w3.org/1999/xlink" x="0px" y="0px"
	 viewBox="0 0 1080 1080" style="enable-background:new 0 0 1080 1080;" xml:space="preserve">
<style type="text/css">
	.st0{fill:#FFFFFF;}
</style>
<path class="st0" d="M451.8,103.6c-35.1,35.4-41.8,90-16.5,132.9L261.4,410.4c-12.7,12.7-19.7,29.9-19.6,47.8L241.7,956
	c0,29.8,24.2,54,54,54l0,0h466.4c29.7,0.1,53.9-23.9,54-53.6V458.1c0.1-18-7-35.2-19.7-47.9L638.6,252.4c3.6-11.3,6.2-22.8,7.6-34.6
	c5.4-42.3-9.5-84.8-40.2-114.4C563.3,61.1,494.4,61.2,451.8,103.6L451.8,103.6z M777.9,428.5c7.9,7.9,12.4,18.6,12.5,29.7L790.2,956
	c-0.2,15.6-12.8,28.2-28.3,28.3H295.7c-15.6-0.2-28.2-12.7-28.3-28.3l-0.1-497.8c0-11.2,4.5-21.9,12.5-29.7l229.1-229.1
	c11-11,28.9-11.1,39.9-0.1l0.1,0.1l59.7,59.7c-9.6,22.4-22.6,43.3-38.5,61.8c-29.6-22.4-71.8-16.6-94.3,13
	c-22.4,29.6-16.6,71.8,13,94.3c29.6,22.4,71.8,16.6,94.3-13c16.5-21.8,18.2-51.3,4.3-74.8c16.4-18.6,30.1-39.4,40.8-61.7
	L777.9,428.5L777.9,428.5z M535.5,385.5c11.6-7.5,22.5-16,32.6-25.4c8,21.8-3.1,45.9-24.8,54c-21.8,8-45.9-3.1-54-24.8
	c-8-21.8,3.1-45.9,24.8-54c12.6-4.7,26.8-3,38,4.5c-9.3,8.9-19.5,16.9-30.3,23.9c-6,3.8-7.8,11.7-4,17.7S529.5,389.3,535.5,385.5
	L535.5,385.5L535.5,385.5z M620.3,215.2c-0.7,5.5-1.6,11.1-2.9,16.5L567,181.2c-21.1-21.1-55.3-21.1-76.4,0l-36.3,36.3
	c-20.4-41.2-3.6-91.1,37.5-111.6c32-15.9,70.6-9.6,95.9,15.7c25.2,24.1,37.4,58.8,32.7,93.3L620.3,215.2z"/>
</svg>
