<?xml version="1.0" encoding="utf-8"?>
<!-- Generator: Adobe Illustrator 23.0.2, SVG Export Plug-In . SVG Version: 6.00 Build 0)  -->
<svg version="1.1" id="Layer_1" xmlns="http://www.w3.org/2000/svg" xmlns:xlink="http://www.w3.org/1999/xlink" x="0px" y="0px"
	 viewBox="0 0 595.28 841.89" style="enable-background:new 0 0 595.28 841.89;" xml:space="preserve">
<style type="text/css">
	.st0{fill:#0096d6;}
    .color-write{
        fill: #fff;
    }
</style>
<g>
	
	<path class="color-write" d="M225.48,337.89c16.93-34.1,33.34-69.02,51.69-102.88c5.09-9.4,16.74-22.52,23.99-21.69c9.61,1.1,20.4,12.69,26.16,22.45
		c13.64,23.11,27.54,46.83,35.85,72.1c9.12,27.74,27.7,34.29,52.88,36.89c28.79,2.98,57.43,7.87,85.9,13.2
		c23.25,4.36,28.46,21.33,11.75,38.8c-25.05,26.18-50.98,51.53-76.89,76.88c-8.57,8.39-10.84,15.56-7.75,28.72
		c8.42,35.86,13.82,72.5,19,109.04c2.75,19.35-19.38,28.75-42.26,17.57c-29.32-14.33-58.39-29.27-86.86-45.22
		c-10.72-6-18.42-5.9-29.3-0.07c-30.08,16.11-61.25,30.15-91.66,45.67c-11.65,5.95-24.76,9.66-33.35,0.15
		c-5.55-6.14-5.8-19.44-4.49-28.98c4.85-35.1,11.97-69.89,16.67-105.01c0.86-6.41-4.06-15.31-9-20.49
		c-23.99-25.15-49.04-49.29-73.44-74.05c-22.02-22.34-18.14-37.02,13.03-43.27C145.74,350.02,184.54,344.64,225.48,337.89z
		 M96.22,377.01c31.43,31.14,57.75,58.78,85.9,84.4c12.23,11.14,16.24,22.49,13.31,37.71c-2.32,12.07-4.64,24.14-6.6,36.26
		c-4.22,26.08-8.22,52.2-13.02,82.9c39.37-19.56,74.16-35.73,107.78-54.06c14.84-8.09,26.19-8.64,41.15-0.14
		c32.41,18.4,66.09,34.56,104.02,54.09c-6.58-39.99-11.68-75.03-18.34-109.78c-3.56-18.57-4.54-33.96,12.5-48.01
		c19.31-15.91,35.98-35.05,53.65-52.93c8.98-9.09,17.65-18.49,29.53-30.98c-38.08-5.25-70.88-10.58-103.87-14.04
		c-24.16-2.53-42.03-8.79-52.04-35.05c-12.45-32.68-30.69-63.15-48.15-98c-20.55,40.81-38.77,77.78-57.94,114.25
		c-3.07,5.85-9.89,12.58-15.87,13.59C186.82,364.26,145.16,369.87,96.22,377.01z"/>
	
</g>
</svg>
