<?xml version="1.0" encoding="utf-8"?>
<!-- Generator: Adobe Illustrator 23.0.2, SVG Export Plug-In . SVG Version: 6.00 Build 0)  -->
<svg version="1.1" id="Layer_1" xmlns="http://www.w3.org/2000/svg" xmlns:xlink="http://www.w3.org/1999/xlink" x="0px" y="0px"
	 viewBox="0 0 595.28 841.89" style="enable-background:new 0 0 595.28 841.89;" xml:space="preserve">
<style type="text/css">
	.st0{fill:#0096d6;}
    .color-write{
        fill: #fff;
    }
</style>
<g>
	
	<path class="color-write" d="M327.9,492.42c-20.26,0-37.92,0-58.02,0c0,38.26,0,75.95,0,115.88c-38.82,0-75.29,1.02-111.65-0.43
		c-18.28-0.73-27.05-15.7-27.54-32.04c-1.24-41.1-0.75-82.26-0.02-123.39c0.1-5.67,4.33-12.44,8.65-16.68
		c48.94-48.05,98.43-95.54,147.34-143.61c9-8.84,15.31-8.81,24.13,0.1c49.42,49.98,99.46,99.37,148.62,149.6
		c4.86,4.97,7.22,14.28,7.39,21.65c0.77,33.64,0.57,67.31,0.27,100.96c-0.3,34.12-14.55,48.25-48,48.33
		c-23.93,0.06-47.89-0.58-71.79,0.22c-14.61,0.49-19.93-4.98-19.6-19.58C328.39,560.61,327.9,527.75,327.9,492.42z M345.86,594.82
		c26.97,0,51.56,1.23,75.95-0.42c16.87-1.14,28.4-9.63,27.65-30.08c-1.13-30.61,0.18-61.31-0.64-91.94
		c-0.2-7.37-2.59-16.62-7.46-21.61c-46.92-48.13-94.58-95.53-142.39-143.5C252.21,354,206.13,399.88,160.4,446.1
		c-3.76,3.8-7.25,9.91-7.33,15.01c-0.61,38.12-0.78,76.27,0.24,114.37c0.14,5.03,7.67,13.92,12.09,14.13
		c28.09,1.3,56.26,0.66,86.13,0.66c0-32.26,0.47-62.03-0.17-91.77c-0.4-18.21,7.43-25.89,25.43-25.06
		c14.18,0.65,28.44,0.76,42.6-0.02c18.98-1.04,27.2,6.75,26.68,26.13C345.26,530.14,345.86,560.77,345.86,594.82z"/>
	<path class="color-write" d="M112.23,428.78c2.44-6.21,3.25-14.02,7.56-18.39c52.54-53.3,105.48-106.2,158.66-158.87c6.63-6.57,15.22-11.15,24.22-17.6
		c60.81,61.13,121.05,121.45,180.79,182.26c4.31,4.39,4.92,12.42,4.94,20.4c-28.39-9.62-43.35-34.34-63.38-52.7
		c-21.5-19.7-41.6-40.94-62.08-61.74c-19.89-20.21-39.49-40.7-61.32-63.25c-61.71,59.64-121.55,117.48-181.39,175.32
		C117.56,432.4,114.9,430.59,112.23,428.78z"/>
	
</g>
</svg>
