<?xml version="1.0" encoding="utf-8"?>
<!-- Generator: Adobe Illustrator 23.0.2, SVG Export Plug-In . SVG Version: 6.00 Build 0)  -->
<svg version="1.1" id="Layer_1" xmlns="http://www.w3.org/2000/svg" xmlns:xlink="http://www.w3.org/1999/xlink" x="0px" y="0px"
	 viewBox="0 0 595.28 841.89" style="enable-background:new 0 0 595.28 841.89;" xml:space="preserve">
<style type="text/css">
	.st0{fill:#0096d6;}
    .color-write{
        fill: #fff;
    }
</style>
<g>
	
	<path class="color-write" d="M302.15,281.19c57.79,0,115.57-0.03,173.36,0.01c44.37,0.03,61.71,23.22,54.85,66.51
		c-8.09,51.06-11.99,102.77-18.97,154.03c-2.12,15.54-7.39,30.95-13.44,45.48c-1.99,4.79-10.91,9.27-16.82,9.47
		c-101.58,3.51-203.18,6.6-304.79,9.02c-16.66,0.4-33.87-0.98-49.9-5.12c-7.8-2.01-16.2-11.14-19.49-19.06
		c-5.16-12.43-7.64-26.44-8.73-39.98c-2.42-30.01-3.1-60.16-4.86-90.22c-0.69-11.89-4.7-20.54-13.98-30.62
		c-8.52-9.25-7.75-30.31-5.4-45.27c1.9-12.13,13.76-22.34,18.45-34.47c6.03-15.62,16.3-20.1,31.92-19.98
		C183.61,281.48,242.88,281.19,302.15,281.19z M347.92,525.43c2.72-53.71,5.37-106.07,8.06-158.99
		c-63.08,12.5-124.04,12.43-182.99,0.95c0,52.52,0,105.09,0,158.04C232.34,525.43,287.81,525.43,347.92,525.43z M422.51,515.77
		c4.51-52.06,8.87-102.44,13.24-152.87c-24.9,0-47.34,0-72.52,0c0,55.01,0,108.45,0,163.53
		C382.14,523.04,401.23,519.6,422.51,515.77z M479.36,502.89c4.88-43.8,9.5-85.31,14.17-127.28c-15.78,0-28.88,0-44.46,0
		c-3.36,42.6-6.66,84.42-10.04,127.28C454.81,502.89,466.39,502.89,479.36,502.89z M103.5,314.2c76.79,22.76,275.67,21.44,317.27,0
		C312.6,314.2,208.05,314.2,103.5,314.2z M178.95,555.95c57.28,0,111.87,0,166.75,0c0-7.3,0-13.45,0-19.65
		c-56.54,0-111.72,0-166.75,0C178.95,543.49,178.95,549.2,178.95,555.95z M481.44,522.27c-36.59,4.15-73.44,8.73-110.38,12.34
		c-16.42,1.6-16.81,9.8-13.79,18.77c34.9-1.81,67.57-4.52,100.26-4.76C473.86,548.51,483.28,544.85,481.44,522.27z M163.58,477.94
		c-19.01-2.5-37.21-4.89-56.43-7.42c3.36,16.8,1.65,36.42,10.61,45.32c9.34,9.28,28.95,8.24,45.82,12.12
		C163.58,509.78,163.58,495.25,163.58,477.94z M102.86,410.72c18.48,0,36.88,0,55.52,0c0-13.57,0-24.53,0-34.25
		c-19.59,3.57-37.49,6.84-55.52,10.13C102.86,396.23,102.86,405.7,102.86,410.72z M198.74,301.68c43.59,0,84.33,0,126.55,0
		C311.71,286,214.96,285.43,198.74,301.68z M508.47,335.85c-0.88-2.71-1.76-5.42-2.64-8.13c-45.48,3.4-90.96,6.8-136.44,10.2
		c0.08,1.84,0.16,3.67,0.25,5.51c42.71,0,85.42,0.18,128.13-0.33C501.36,343.06,504.9,338.37,508.47,335.85z M509.19,305.43
		c-29.65-21.5-59.58-13.48-88.26-15.46C427.84,310.32,445.16,313.47,509.19,305.43z M132.7,345.09c-17.25,0-32.33,0-47.1,0
		c0,8.76,0,15.91,0,23.87c16.14,0,31.23,0,47.1,0C132.7,360.57,132.7,353.41,132.7,345.09z M326.25,367.17
		c0.24-1.48,0.48-2.97,0.71-4.45c-42.8,0-85.6,0-128.39,0c0,1.48,0,2.97,0.01,4.45C241.13,367.17,283.69,367.17,326.25,367.17z
		 M103.55,301.06c61.68,7.01,83.36,4.2,89.93-11.95C165.16,294.02,136.18,282.71,103.55,301.06z M330.81,294.45
		c26.31,13.66,54.26,7.62,81.85,8.05c0.14-2.68,0.28-5.36,0.41-8.05C385.65,294.45,358.23,294.45,330.81,294.45z M167.02,556.91
		c-1.39-7.85-2.47-13.94-3.67-20.69c-15.04-3.14-30.17-6.3-45.38-9.47C116.31,545.61,116.31,545.61,167.02,556.91z M113.6,415.53
		c1.15,16.75,2.19,31.76,3.22,46.74c6.93,1.22,13.2,2.33,19.46,3.43C140.36,430.69,135.49,419.63,113.6,415.53z M169.72,340.03
		c0,0.72,0,1.44,0,2.17c61.78,0,123.55,0,185.33,0c0-0.72,0-1.44,0-2.17C293.28,340.03,231.5,340.03,169.72,340.03z M351.14,355.66
		c-0.01-0.59-0.01-1.19-0.02-1.78c-60.23,0-120.46,0-180.7,0c0.01,0.59,0.01,1.19,0.02,1.78
		C230.67,355.66,290.91,355.66,351.14,355.66z M159.46,421.14c-18.04-6.31-17.03,4.62-17.14,15.41
		c-0.29,28.46-0.46,28.46,17.14,29.32C159.46,451.42,159.46,436.99,159.46,421.14z M432.8,314.82c-0.02,1.48-0.04,2.97-0.06,4.45
		c22.29,0,44.58,0,66.88,0c0.03-1.48,0.05-2.97,0.08-4.45C477.39,314.82,455.1,314.82,432.8,314.82z M501.8,368.98
		c-0.08-2.55-0.17-5.1-0.25-7.66c-19.43,2.12-39.35-4.56-58.19,7.66C462.84,368.98,482.32,368.98,501.8,368.98z"/>
	
	
	
	<path class="color-write" d="M267.25,390.45c2.87,6.04,8.88,12.74,7.77,17.93c-1.2,5.63-9.03,9.85-13.96,14.69c-3.95-5.1-10.76-10.03-11.06-15.33
		c-0.32-5.66,5.5-11.67,8.64-17.53C261.51,390.28,264.38,390.36,267.25,390.45z"/>
</g>
</svg>
