<?xml version="1.0" encoding="utf-8"?>
<!-- Generator: Adobe Illustrator 23.0.2, SVG Export Plug-In . SVG Version: 6.00 Build 0)  -->
<svg version="1.1" id="Layer_1" xmlns="http://www.w3.org/2000/svg" xmlns:xlink="http://www.w3.org/1999/xlink" x="0px" y="0px"
	 viewBox="0 0 612 792" style="enable-background:new 0 0 612 792;" xml:space="preserve">
<style type="text/css">
	.st0{fill:#0096d6;}
    .color-write{
        fill: #fff;
    }
</style>
<g>
	
	<path class="color-write" d="M502.48,400.19c0,38.28-0.48,76.58,0.29,114.84c0.23,11.44-2.85,17.56-13.84,21.84c-53.12,20.72-105.63,43.03-159.11,62.75
		c-11.82,4.36-28.05,4.15-39.92-0.25c-52.14-19.33-103.33-41.18-155.07-61.58c-10.99-4.33-16.12-9.48-15.98-22.62
		c0.78-76.56,0.64-153.13,0.1-229.69c-0.08-11.39,2.79-17.57,13.79-21.87c53.13-20.72,105.66-43.04,159.15-62.75
		c11.82-4.36,28.05-4.14,39.91,0.26c52.15,19.33,103.28,41.39,155.15,61.48c12.71,4.92,16.16,11.85,15.84,24.88
		C501.9,325.02,502.48,362.61,502.48,400.19z M302.33,589.19c0-77.02,0.25-150.73-0.53-224.42c-0.06-5.31-6.58-12.94-11.97-15.39
		c-25.22-11.48-51-21.75-76.76-32.01c-26.38-10.5-52.96-20.48-80.46-31.07c0,80.77,0,158,0,235.18
		C188.33,543.7,243.51,565.72,302.33,589.19z M319.39,588.18c54.22-21.35,105.37-41.08,156.02-61.99
		c6.12-2.53,13.59-11.45,13.67-17.5c0.94-73.54,0.61-147.09,0.61-223.05c-28.18,11.11-54.36,21.43-79.68,31.41
		c-4.88,25.43,4.48,51.54-5.32,74.76c-2.89-0.25-5.79-0.49-8.68-0.74c0-22.15,0-44.29,0-68.17c-24.09,9.52-45.5,17.29-66.18,26.69
		c-4.78,2.17-9.95,9.9-10,15.11C319.18,438.4,319.39,512.1,319.39,588.18z M476.81,275.07c-44.43-17.88-85.56-34.64-126.89-50.94
		c-14.1-5.56-29.79-16.01-42.74-13.56c-22.77,4.31-43.98,16.83-69.1,27.26c48.16,19.69,91.97,38.17,136.29,55.35
		c11.8,4.58,26.13,9.35,37.58,6.67C433.18,294.88,453.14,284.48,476.81,275.07z M381.19,312.76c-4.59-2.69-7.41-4.86-10.59-6.12
		c-39.77-15.8-79.45-31.81-119.47-46.96c-13.24-5.01-28.41-12.86-40.83-10.31c-21.81,4.47-42.18,15.96-65.47,25.46
		c25.52,10.36,48.7,19.25,71.46,29.12C269.84,327.17,322.87,356.11,381.19,312.76z"/>
	
</g>
</svg>
