<?xml version="1.0" encoding="utf-8"?>
<!-- Generator: Adobe Illustrator 23.0.2, SVG Export Plug-In . SVG Version: 6.00 Build 0)  -->
<svg version="1.1" id="Layer_1" xmlns="http://www.w3.org/2000/svg" xmlns:xlink="http://www.w3.org/1999/xlink" x="0px" y="0px"
	 viewBox="0 0 612 792" style="enable-background:new 0 0 612 792;" xml:space="preserve">
<style type="text/css">
	.st0{fill:#0096d6;}
    .color-write{
        fill: #fff;
    }
</style>
<g>
	
	<path class="color-write" d="M127.9,494.12c21.16-31.16,51.02-50.96,87.78-53.62c44.73-3.24,89.87-0.68,134.83-0.81c19.69-0.06,29.11,9.4,29.3,29.11
		c0.22,22.61-7.96,33.76-28.66,34.74c-20.42,0.96-40.92,0.21-61.45,4.4c36.2,0,73.86,6.12,108.13-2.01
		c25.61-6.08,47.34-29.91,69.93-46.98c27.87-21.06,50.1-17.36,63.63,10.22c9.53,19.41-1.58,30.77-13.96,40.41
		c-27.09,21.1-55,41.25-83.52,60.37c-7.45,5-18.36,6.64-27.71,6.73c-60.96,0.57-121.93-0.36-182.88,0.67
		c-19.57,0.33-39.06,5.1-62.24,8.35c0.39,0.61-2.48-3.8-5.34-8.21C146.46,549.7,137.18,521.91,127.9,494.12z M168.88,567.99
		c23.88-1.77,43.96-4.32,64.06-4.53c56.4-0.59,112.82,0.37,169.2-0.71c10.87-0.21,22.89-4.96,32.18-11
		c25.62-16.66,50.07-35.11,74.98-52.86c10.05-7.17,18.15-15.64,8.57-28.04c-8.15-10.55-17.04-19.22-32.11-7.31
		c-20.48,16.19-42.08,31.02-63.8,45.54c-8.36,5.59-18.21,12-27.62,12.4c-34.24,1.48-68.62,1.48-102.84-0.13
		c-7.36-0.35-14.28-9.8-21.4-15.06c6.98-5.41,13.48-14.51,21.02-15.48c18-2.3,36.8,1.21,54.65-1.62
		c8.81-1.4,22.11-10.96,22.92-18.03c1.26-11.04-8.21-18.66-22.81-18.09c-31.2,1.23-62.66,2.44-93.7-0.13
		c-43.35-3.59-80,6.45-108.05,41.98C152.41,519.37,160.96,544.61,168.88,567.99z"/>
	<path class="color-write" d="M397.16,398.42c-9.62-55.44-38.69-97.12-95.75-98.91c-64.13-2.01-96.56,41.08-103.56,105.67
		c-24.21-32.45,15.1-95.85,65.77-114.18c-29.63-26.9-35.22-64.41-14.83-89.06c25.85-31.25,64.95-28.31,88.04-8.57
		c28.84,24.65,26.82,57.53-5.75,98.23C386.59,320.1,409.45,355.56,397.16,398.42z M297.7,192.68
		c-26.12-0.07-51.36,23.25-50.59,46.75c0.68,20.62,28.94,51.27,48.01,48.69c24.86-3.37,49.74-19.56,48.34-49.02
		C342.08,210.09,326.38,192.76,297.7,192.68z"/>
	<path class="color-write" d="M127.9,494.12c9.28,27.79,18.56,55.58,27.84,83.37c0.87,7.95,1.74,15.91,2.76,25.22c-13.9,7.05-28.77,15.46-44.35,22.25
		c-16.41,7.15-26.51,1.11-26.95-16.77c-0.85-34.03-0.79-68.11,0.31-102.13c0.17-5.33,6.87-13.23,12.18-14.99
		C108.65,488.1,120.23,478.95,127.9,494.12z M145.23,595.15c-9.29-28.97-17.69-55.91-26.76-82.61c-1.36-4.02-5.88-6.96-8.93-10.41
		c-2.95,3.6-8.38,7.14-8.45,10.79c-0.66,33.11-0.39,66.25-0.39,101.69C117.31,607.36,130.7,601.5,145.23,595.15z"/>
	
	
</g>
</svg>
