<?xml version="1.0" encoding="utf-8"?>
<!-- Generator: Adobe Illustrator 23.0.2, SVG Export Plug-In . SVG Version: 6.00 Build 0)  -->
<svg version="1.1" id="Layer_1" xmlns="http://www.w3.org/2000/svg" xmlns:xlink="http://www.w3.org/1999/xlink" x="0px" y="0px"
	 viewBox="0 0 595.28 841.89" style="enable-background:new 0 0 595.28 841.89;" xml:space="preserve">
<style type="text/css">
	.st0{fill:#0096d6;}
    .color-write{
        fill: #fff;
    }
</style>
<g>
	
	<path class="color-write" d="M473.71,497.49c-5.46-3.55-14.2-7.13-13.86-9.32c4.24-27.45-14.19-58.9,11.85-82.09c9.49-8.44,23.21-12.13,38.73-19.84
		c-25.99-14.52-49-27.38-72-40.23c-39.74-22.22-79.24-44.9-119.44-66.26c-7.84-4.17-20.72-7.51-27.37-3.94
		c-65.91,35.36-131,72.25-198.03,109.65c30.81,17.61,59.88,34.64,89.34,50.95c35.34,19.56,71.06,38.44,106.53,57.76
		c9.76,5.32,16.84,5.42,27.78-1.52c29.71-18.84,61.35-34.68,92.55-51.11c5.96-3.14,13.35-3.56,22.19-5.75
		c0,35.1,1.57,67.38-0.96,99.32c-0.76,9.6-11.25,20.71-20.18,27.03c-61.71,43.67-151.85,43.15-216.29,1.28
		c-19.35-12.58-28.2-28.49-28.22-51.23c-0.05-64.12-0.34-64.12-58.39-93.3c-3.94-1.98-8.92-2.95-11.73-5.96
		c-8.51-9.11-22.62-19.18-22.35-28.53c0.25-8.88,14.54-19.68,24.95-25.58c59.39-33.68,119.5-66.11,179.31-99.04
		c16.68-9.18,31.22-9.74,49.34,0.75c60.99,35.31,123.36,68.26,185.3,101.92c23.53,12.79,27.02,36.93,3.22,44.53
		c-41.09,13.11-41.98,41.2-39.06,74.24c0.26,2.96-0.18,5.98-0.4,8.97C476.49,490.87,476.04,491.54,473.71,497.49z M189,463.37
		c0,19.41-2.18,35.38,0.71,50.38c2.22,11.51,8.04,26.09,17.04,31.91c61.03,39.52,124.07,38.01,186.39,2.6
		c8.77-4.98,18.3-15.54,19.86-24.81c3.11-18.39,0.92-37.68,0.92-59.1c-28.43,14.76-55.4,25.48-78.56,41.65
		c-25.67,17.92-47.39,13.72-71.44-0.75C240.26,491.03,215.72,478.23,189,463.37z"/>
	<path class="color-write" d="M459.07,580.82c0-17.77-0.58-29.48,0.17-41.11c0.73-11.39,10.8-18.39,16.68-9.4c6.25,9.57,5.27,24.98,4.22,37.57
		C479.8,571.83,469.09,574.94,459.07,580.82z"/>
	
</g>
</svg>
