<svg id="Layer_1" data-name="Layer 1" xmlns="http://www.w3.org/2000/svg" xmlns:xlink="http://www.w3.org/1999/xlink" viewBox="0 0 400 400"><defs><style>.cls-1{fill:none;}.cls-2{clip-path:url(#clip-path);}.cls-3{fill:#f0f0f0;}.cls-4{fill:#d80027;}.cls-5{fill:#0052b4;}.cls-6{fill:#fff;}.cls-7{fill:#5a5a5a;}</style><clipPath id="clip-path"><path class="cls-1" d="M133.53,303c-10.71,0-14.6-7.92-14.68-14.71V111.7C118.85,101,126.74,97,133.5,97h89.83a2.36,2.36,0,0,1,1.64.68,2.49,2.49,0,0,1,.71,1.67v35c0,6.25,3.77,18.05,18,18.05h34.82a2.29,2.29,0,0,1,1.62.67l.3.3a2.32,2.32,0,0,1,.68,1.63V288.3c0,10.75-7.9,14.66-14.66,14.74h-133Z"/></clipPath></defs><title>eng</title><g class="cls-2"><rect class="cls-3" x="89.12" y="93.61" width="215.77" height="215.77"/><polygon class="cls-4" points="89.12 221.72 176.78 221.72 176.78 309.38 217.23 309.38 217.23 221.72 304.89 221.72 304.89 181.27 217.23 181.27 217.23 93.61 176.78 93.61 176.78 181.27 89.12 181.27 89.12 221.72"/><polygon class="cls-5" points="260.61 234.37 304.89 278.65 304.89 234.37 260.61 234.37"/><polygon class="cls-5" points="229.84 234.37 304.89 309.42 304.89 288.2 251.06 234.37 229.84 234.37"/><polygon class="cls-5" points="284.94 309.38 229.88 254.32 229.88 309.38 284.94 309.38"/><polygon class="cls-3" points="229.84 234.37 304.89 309.42 304.89 288.2 251.06 234.37 229.84 234.37"/><polygon class="cls-4" points="229.84 234.37 304.89 309.42 304.89 288.2 251.06 234.37 229.84 234.37"/><polygon class="cls-5" points="122.96 234.37 89.12 268.21 89.12 234.37 122.96 234.37"/><polygon class="cls-5" points="164.13 243.88 164.13 309.38 98.63 309.38 164.13 243.88"/><polygon class="cls-4" points="142.94 234.37 89.12 288.19 89.12 309.42 89.12 309.42 164.17 234.37 142.94 234.37"/><polygon class="cls-5" points="133.4 168.63 89.12 124.34 89.12 168.63 133.4 168.63"/><polygon class="cls-5" points="164.17 168.63 89.12 93.58 89.12 114.8 142.95 168.63 164.17 168.63"/><polygon class="cls-5" points="109.07 93.61 164.13 148.68 164.13 93.61 109.07 93.61"/><polygon class="cls-3" points="164.17 168.63 89.12 93.58 89.12 114.8 142.95 168.63 164.17 168.63"/><polygon class="cls-4" points="164.17 168.63 89.12 93.58 89.12 114.8 142.95 168.63 164.17 168.63"/><polygon class="cls-5" points="271.05 168.63 304.89 134.78 304.89 168.63 271.05 168.63"/><polygon class="cls-5" points="229.88 159.12 229.88 93.61 295.38 93.61 229.88 159.12"/><polygon class="cls-4" points="251.06 168.63 304.89 114.8 304.89 93.58 304.89 93.58 229.84 168.63 251.06 168.63"/></g><path class="cls-6" d="M243.73,149c-6.71,0-14.58-3.83-14.66-14.64v-27a2.31,2.31,0,0,1,1.42-2.13,2.22,2.22,0,0,1,.88-.17,2.3,2.3,0,0,1,1.63.67l39.22,39.39a2.3,2.3,0,0,1-1.63,3.92Z"/><path class="cls-7" d="M278.84,288.3c0,11.69-10.3,12.41-12.38,12.44H133.53c-11.65,0-12.35-10.38-12.37-12.44V111.7c0-11.7,10.32-12.41,12.37-12.44h89.8l0,0v35c0,7,4.25,20.35,20.35,20.35h34.82l.29.3Zm-8.25-141.59H243.73c-11.64,0-12.35-10.32-12.36-12.36v-27ZM286.83,288.3V151.7L231.37,96v-.26h-.27l-4.45-4.48H133.53c-7,0-20.36,4.27-20.36,20.43V288.3c0,7.07,4.25,20.43,20.36,20.43H266.47c7,0,20.36-4.27,20.36-20.43"/></svg>