<svg id="Layer_1" data-name="Layer 1" xmlns="http://www.w3.org/2000/svg" xmlns:xlink="http://www.w3.org/1999/xlink" viewBox="0 0 400 400"><defs><style>.cls-1{fill:none;}.cls-2{clip-path:url(#clip-path);}.cls-3{fill:#fff;}.cls-4{fill:#d80027;}.cls-5{fill:#5a5a5a;}</style><clipPath id="clip-path"><path class="cls-1" d="M133.53,303c-10.71,0-14.6-7.92-14.68-14.71V111.7C118.85,101,126.74,97,133.5,97h89.83a2.33,2.33,0,0,1,1.63.67,2.5,2.5,0,0,1,.72,1.68v35c0,6.25,3.77,18.05,18,18.05h34.82a2.29,2.29,0,0,1,1.62.67l.3.3a2.32,2.32,0,0,1,.68,1.63V288.3c0,10.75-7.9,14.66-14.66,14.74h-133Z"/></clipPath></defs><title>jap</title><g class="cls-2"><rect class="cls-3" x="105.5" y="82.5" width="184" height="230"/><circle class="cls-4" cx="199.19" cy="208.65" r="40.31"/></g><path class="cls-3" d="M243.73,149c-6.71,0-14.58-3.83-14.66-14.64v-27a2.31,2.31,0,0,1,1.42-2.13,2.22,2.22,0,0,1,.88-.17,2.3,2.3,0,0,1,1.63.67l39.22,39.39a2.29,2.29,0,0,1-1.63,3.92Z"/><path class="cls-5" d="M278.84,288.3c0,11.69-10.3,12.41-12.38,12.44H133.53c-11.65,0-12.35-10.38-12.37-12.44V111.7c0-11.7,10.32-12.41,12.37-12.44h89.8l0,0v35c0,7,4.25,20.35,20.35,20.35h34.82l.29.3Zm-8.25-141.59H243.73c-11.64,0-12.35-10.32-12.36-12.36v-27ZM286.83,288.3V151.7L231.37,96v-.26h-.27l-4.45-4.48H133.53c-7,0-20.36,4.27-20.36,20.43V288.3c0,7.07,4.25,20.43,20.36,20.43H266.47c7,0,20.36-4.27,20.36-20.43"/></svg>