<svg id="Layer_1" data-name="Layer 1" xmlns="http://www.w3.org/2000/svg" xmlns:xlink="http://www.w3.org/1999/xlink" viewBox="0 0 400 400"><defs><style>.cls-1{fill:none;}.cls-2{clip-path:url(#clip-path);}.cls-3{fill:#d80027;}.cls-4{fill:#ffda44;}.cls-5{fill:#fff;}.cls-6{fill:#0052b4;}.cls-7{fill:#5a5a5a;}</style><clipPath id="clip-path"><path class="cls-1" d="M133.53,303c-10.71,0-14.6-7.92-14.68-14.71V111.7C118.85,101,126.74,97,133.5,97h89.83a2.33,2.33,0,0,1,1.63.67,2.5,2.5,0,0,1,.72,1.68v35c0,6.25,3.77,18.05,18,18.05h34.82a2.29,2.29,0,0,1,1.62.67l.3.3a2.32,2.32,0,0,1,.68,1.63V288.3c0,10.75-7.9,14.66-14.66,14.74h-133Z"/></clipPath></defs><title>korean</title><g class="cls-2"><rect class="cls-3" x="99.6" y="94.75" width="215.77" height="215.77"/><polygon class="cls-4" points="170.24 165.07 178.47 190.41 205.12 190.41 183.56 206.08 191.8 231.42 170.24 215.76 148.68 231.42 156.91 206.08 135.35 190.41 162 190.41 170.24 165.07"/><polygon class="cls-4" points="222.14 249.62 214.06 243.75 205.97 249.62 209.06 240.12 200.98 234.24 210.97 234.24 214.06 224.74 217.15 234.24 227.14 234.24 219.06 240.11 222.14 249.62"/><polygon class="cls-4" points="243.24 220.33 233.24 220.33 230.15 230.05 227.07 220.75 217.07 220.75 225.16 214.67 222.07 205.17 230.16 211.04 238.24 205.16 235.15 214.67 243.24 220.33"/><polygon class="cls-4" points="243.24 184.51 235.15 190.39 238.24 199.89 230.16 194.02 222.07 199.89 225.16 190.38 217.07 184.51 227.07 184.51 230.16 175.01 233.24 184.51 243.24 184.51"/><polygon class="cls-4" points="222.14 155.65 219.06 165.15 227.14 171.03 217.15 171.03 214.06 180.53 210.97 171.03 200.98 171.03 209.06 165.15 205.97 155.65 214.06 161.52 222.14 155.65"/><rect class="cls-5" x="109.5" y="88.5" width="178" height="224"/><path class="cls-3" d="M231.25,200.62c0,8.21-14.7,28.73-32.83,28.73s-32.84-20.52-32.84-28.73a32.84,32.84,0,0,1,65.67,0Z"/><path class="cls-6" d="M231.25,200.62a32.84,32.84,0,0,1-65.67,0"/><rect x="234.35" y="224.09" width="12.31" height="8.21" transform="translate(-90.92 236.9) rotate(-45)"/><rect x="219.83" y="238.6" width="12.31" height="8.21" transform="translate(-105.43 230.89) rotate(-45)"/><rect x="251.76" y="241.5" width="12.31" height="8.21" transform="translate(-98.12 254.31) rotate(-45)"/><rect x="237.25" y="256.01" width="12.31" height="8.21" transform="translate(-112.64 248.3) rotate(-45)"/><rect x="243.05" y="232.79" width="12.31" height="8.21" transform="translate(-94.52 245.6) rotate(-45)"/><rect x="228.54" y="247.31" width="12.31" height="8.21" transform="translate(-109.03 239.59) rotate(-45)"/><rect x="237.85" y="140.67" width="8.21" height="32.83" transform="translate(-40.21 217.09) rotate(-45)"/><rect x="221.89" y="152.38" width="8.21" height="12.31" transform="translate(-45.91 206.24) rotate(-45)"/><rect x="236.4" y="166.89" width="8.21" height="12.31" transform="translate(-51.92 220.74) rotate(-45)"/><rect x="239.3" y="134.97" width="8.21" height="12.31" transform="translate(-28.5 213.44) rotate(-45)"/><rect x="253.81" y="149.48" width="8.21" height="12.31" transform="translate(-34.51 227.96) rotate(-45)"/><rect x="142.07" y="236.44" width="8.21" height="32.83" transform="translate(-135.99 177.42) rotate(-45)"/><rect x="158.03" y="245.25" width="8.21" height="12.31" transform="translate(-130.28 188.28) rotate(-45)"/><rect x="143.53" y="230.74" width="8.21" height="12.31" transform="translate(-124.27 173.77) rotate(-45)"/><rect x="159.49" y="219.03" width="8.21" height="32.83" transform="translate(-118.57 184.64) rotate(-45)"/><rect x="129.76" y="144.28" width="32.83" height="8.21" transform="translate(-62.11 146.82) rotate(-45)"/><rect x="138.47" y="152.98" width="32.83" height="8.21" transform="translate(-65.71 155.53) rotate(-45)"/><rect x="147.17" y="161.69" width="32.83" height="8.21" transform="translate(-69.32 164.24) rotate(-45)"/></g><path class="cls-5" d="M243.73,149c-6.71,0-14.58-3.83-14.66-14.64v-27a2.31,2.31,0,0,1,1.42-2.13,2.22,2.22,0,0,1,.88-.17,2.3,2.3,0,0,1,1.63.67l39.22,39.39a2.29,2.29,0,0,1-1.63,3.92Z"/><path class="cls-7" d="M278.84,288.3c0,11.69-10.3,12.41-12.38,12.44H133.53c-11.65,0-12.35-10.38-12.37-12.44V111.7c0-11.7,10.32-12.41,12.37-12.44h89.8l0,0v35c0,7,4.25,20.35,20.35,20.35h34.82l.29.3Zm-8.25-141.59H243.73c-11.64,0-12.35-10.32-12.36-12.36v-27ZM286.83,288.3V151.7L231.37,96v-.26h-.27l-4.45-4.48H133.53c-7,0-20.36,4.27-20.36,20.43V288.3c0,7.07,4.25,20.43,20.36,20.43H266.47c7,0,20.36-4.27,20.36-20.43"/></svg>